<svg width="359" height="114" viewBox="0 0 359 114" fill="none" xmlns="http://www.w3.org/2000/svg">
<rect y="2" width="344" height="111" rx="20" fill="#121212"/>
<path d="M308.628 78H306.576L300.402 68.658V78H298.35V65.472H300.402L306.576 74.796V65.472H308.628V78Z" fill="white" fill-opacity="0.1"/>
<line x1="297" y1="70.5" x2="310" y2="70.5" stroke="white" stroke-opacity="0.1"/>
<line x1="297" y1="73.5" x2="310" y2="73.5" stroke="white" stroke-opacity="0.1"/>
<path d="M59.648 39.416C59.648 40.184 59.456 40.92 59.072 41.624C58.688 42.312 58.12 42.888 57.368 43.352C56.632 43.816 55.744 44.08 54.704 44.144V46.088H53.408V44.144C51.952 44.016 50.768 43.552 49.856 42.752C48.944 41.936 48.48 40.904 48.464 39.656H50.792C50.856 40.328 51.104 40.912 51.536 41.408C51.984 41.904 52.608 42.216 53.408 42.344V36.344C52.336 36.072 51.472 35.792 50.816 35.504C50.16 35.216 49.6 34.768 49.136 34.16C48.672 33.552 48.44 32.736 48.44 31.712C48.44 30.416 48.888 29.344 49.784 28.496C50.696 27.648 51.904 27.176 53.408 27.08V25.088H54.704V27.08C56.064 27.192 57.16 27.632 57.992 28.4C58.824 29.152 59.304 30.136 59.432 31.352H57.104C57.024 30.792 56.776 30.288 56.36 29.84C55.944 29.376 55.392 29.072 54.704 28.928V34.784C55.76 35.056 56.616 35.336 57.272 35.624C57.944 35.896 58.504 36.336 58.952 36.944C59.416 37.552 59.648 38.376 59.648 39.416ZM50.672 31.592C50.672 32.376 50.904 32.976 51.368 33.392C51.832 33.808 52.512 34.152 53.408 34.424V28.88C52.576 28.96 51.912 29.232 51.416 29.696C50.92 30.144 50.672 30.776 50.672 31.592ZM54.704 42.368C55.568 42.272 56.24 41.96 56.72 41.432C57.216 40.904 57.464 40.272 57.464 39.536C57.464 38.752 57.224 38.152 56.744 37.736C56.264 37.304 55.584 36.96 54.704 36.704V42.368Z" fill="white" fill-opacity="0.1"/>
<path d="M235.5 1.5C232.912 64.3614 268 87.5 339.5 105" stroke="#C4C4C4" stroke-opacity="0.1"/>
<path d="M321 1.99993C265.41 31.4614 267.432 38.9121 301.5 113" stroke="#C4C4C4" stroke-opacity="0.1"/>
<path d="M235.5 2C259.553 58.3256 290.678 40.4991 344 34" stroke="#C4C4C4" stroke-opacity="0.1"/>
<path d="M20.75 86H17.75V96.5H20.75V86ZM29.75 86H26.75V96.5H29.75V86ZM42.5 99.5H14V102.5H42.5V99.5ZM38.75 86H35.75V96.5H38.75V86ZM28.25 75.89L36.065 80H20.435L28.25 75.89ZM28.25 72.5L14 80V83H42.5V80L28.25 72.5Z" fill="white" fill-opacity="0.1"/>
<path d="M285 9H282C282 5.685 279.315 3 276 3C272.685 3 270 5.685 270 9H267C265.35 9 264 10.35 264 12V30C264 31.65 265.35 33 267 33H285C286.65 33 288 31.65 288 30V12C288 10.35 286.65 9 285 9ZM276 6C277.65 6 279 7.35 279 9H273C273 7.35 274.35 6 276 6ZM285 30H267V12H270V15C270 15.825 270.675 16.5 271.5 16.5C272.325 16.5 273 15.825 273 15V12H279V15C279 15.825 279.675 16.5 280.5 16.5C281.325 16.5 282 15.825 282 15V12H285V30Z" fill="white" fill-opacity="0.1"/>
<path d="M4 22L7.42411 18.8205C9.42007 16.9671 12.5245 17.0245 14.4505 18.9505V18.9505C16.208 20.708 18.9812 20.9302 20.9961 19.475L26.5 15.5L31.3705 11.6732C32.6373 10.6778 34.4041 10.6215 35.7316 11.5342L39.13 13.8707C40.1338 14.5608 41.5 13.8421 41.5 12.624V12.624C41.5 11.4586 42.7623 10.7308 43.7709 11.3147L48.5983 14.1095C49.6286 14.706 49.5826 16.2087 48.5178 16.7411V16.7411C47.288 17.356 47.4701 19.165 48.7978 19.5225L52.8941 20.6253C55.1837 21.2418 57.2926 19.1705 56.7175 16.8702L56.2885 15.154C55.634 12.536 57.6141 10 60.3127 10H63" stroke="white" stroke-opacity="0.2"/>
</svg>
