<svg width="365" height="123" viewBox="0 0 365 123" fill="none" xmlns="http://www.w3.org/2000/svg">
<rect width="358" height="123" rx="20" fill="#121212"/>
<path d="M319.628 81H317.576L311.402 71.658V81H309.35V68.472H311.402L317.576 77.796V68.472H319.628V81Z" fill="white" fill-opacity="0.1"/>
<line x1="308" y1="73.5" x2="321" y2="73.5" stroke="white" stroke-opacity="0.1"/>
<line x1="308" y1="76.5" x2="321" y2="76.5" stroke="white" stroke-opacity="0.1"/>
<path d="M70.648 42.416C70.648 43.184 70.456 43.92 70.072 44.624C69.688 45.312 69.12 45.888 68.368 46.352C67.632 46.816 66.744 47.08 65.704 47.144V49.088H64.408V47.144C62.952 47.016 61.768 46.552 60.856 45.752C59.944 44.936 59.48 43.904 59.464 42.656H61.792C61.856 43.328 62.104 43.912 62.536 44.408C62.984 44.904 63.608 45.216 64.408 45.344V39.344C63.336 39.072 62.472 38.792 61.816 38.504C61.16 38.216 60.6 37.768 60.136 37.16C59.672 36.552 59.44 35.736 59.44 34.712C59.44 33.416 59.888 32.344 60.784 31.496C61.696 30.648 62.904 30.176 64.408 30.08V28.088H65.704V30.08C67.064 30.192 68.16 30.632 68.992 31.4C69.824 32.152 70.304 33.136 70.432 34.352H68.104C68.024 33.792 67.776 33.288 67.36 32.84C66.944 32.376 66.392 32.072 65.704 31.928V37.784C66.76 38.056 67.616 38.336 68.272 38.624C68.944 38.896 69.504 39.336 69.952 39.944C70.416 40.552 70.648 41.376 70.648 42.416ZM61.672 34.592C61.672 35.376 61.904 35.976 62.368 36.392C62.832 36.808 63.512 37.152 64.408 37.424V31.88C63.576 31.96 62.912 32.232 62.416 32.696C61.92 33.144 61.672 33.776 61.672 34.592ZM65.704 45.368C66.568 45.272 67.24 44.96 67.72 44.432C68.216 43.904 68.464 43.272 68.464 42.536C68.464 41.752 68.224 41.152 67.744 40.736C67.264 40.304 66.584 39.96 65.704 39.704V45.368Z" fill="white" fill-opacity="0.1"/>
<path d="M246.5 4.5C243.912 67.3614 279 90.5 350.5 108" stroke="#C4C4C4" stroke-opacity="0.1"/>
<path d="M332 5.00041C276.41 34.4619 278.432 41.9126 312.5 116" stroke="#C4C4C4" stroke-opacity="0.1"/>
<path d="M246.5 5C270.553 61.3256 301.678 43.4991 355 37" stroke="#C4C4C4" stroke-opacity="0.1"/>
<g clip-path="url(#clip0_1140_1134)">
<path d="M31.75 89H28.75V99.5H31.75V89ZM40.75 89H37.75V99.5H40.75V89ZM53.5 102.5H25V105.5H53.5V102.5ZM49.75 89H46.75V99.5H49.75V89ZM39.25 78.89L47.065 83H31.435L39.25 78.89ZM39.25 75.5L25 83V86H53.5V83L39.25 75.5Z" fill="white" fill-opacity="0.1"/>
</g>
<g clip-path="url(#clip1_1140_1134)">
<path d="M296 12H293C293 8.685 290.315 6 287 6C283.685 6 281 8.685 281 12H278C276.35 12 275 13.35 275 15V33C275 34.65 276.35 36 278 36H296C297.65 36 299 34.65 299 33V15C299 13.35 297.65 12 296 12ZM287 9C288.65 9 290 10.35 290 12H284C284 10.35 285.35 9 287 9ZM296 33H278V15H281V18C281 18.825 281.675 19.5 282.5 19.5C283.325 19.5 284 18.825 284 18V15H290V18C290 18.825 290.675 19.5 291.5 19.5C292.325 19.5 293 18.825 293 18V15H296V33Z" fill="white" fill-opacity="0.1"/>
</g>
<path d="M15 25L18.4241 21.8205C20.4201 19.9671 23.5245 20.0245 25.4505 21.9505V21.9505C27.208 23.708 29.9812 23.9302 31.9961 22.475L37.5 18.5L42.3705 14.6732C43.6373 13.6778 45.4041 13.6215 46.7316 14.5342L50.13 16.8707C51.1338 17.5608 52.5 16.8421 52.5 15.624V15.624C52.5 14.4586 53.7623 13.7308 54.7709 14.3147L59.5983 17.1095C60.6286 17.706 60.5826 19.2087 59.5178 19.7411V19.7411C58.288 20.356 58.4701 22.165 59.7978 22.5225L63.8941 23.6253C66.1837 24.2418 68.2926 22.1705 67.7175 19.8702L67.2885 18.154C66.634 15.536 68.6141 13 71.3127 13H74" stroke="white" stroke-opacity="0.2"/>
<defs>
<clipPath id="clip0_1140_1134">
<rect width="36" height="36" fill="white" transform="translate(22 74)"/>
</clipPath>
<clipPath id="clip1_1140_1134">
<rect width="36" height="36" fill="white" transform="translate(269 3)"/>
</clipPath>
</defs>
</svg>
