<svg fill="none" height="24" viewBox="0 0 24 24" width="24" xmlns="http://www.w3.org/2000/svg"><g stroke="#292d32" stroke-linecap="round" stroke-linejoin="round" stroke-miterlimit="10" stroke-width="1.5"><path d="m12.37 2.15009 9 3.59997c.35.14.63.56.63.93v3.32004c0 .55-.45 1-1 1h-18c-.55 0-1-.45-1-1v-3.32004c0-.37.28-.79.63-.93l9-3.59997c.2-.08.54-.08.74 0z"/><path d="m22 22h-20v-3c0-.55.45-1 1-1h18c.55 0 1 .45 1 1z"/><path d="m4 18v-7"/><path d="m8 18v-7"/><path d="m12 18v-7"/><path d="m16 18v-7"/><path d="m20 18v-7"/><path d="m1 22h22"/><path d="m12 8.5c.8284 0 1.5-.67157 1.5-1.5s-.6716-1.5-1.5-1.5-1.5.67157-1.5 1.5.6716 1.5 1.5 1.5z"/></g></svg>