<svg height="16" viewBox="0 0 16 16" width="16" xmlns="http://www.w3.org/2000/svg"><path d="m8 0c-4.410156 0-8 3.589844-8 8s3.589844 8 8 8 8-3.589844 8-8-3.589844-8-8-8zm0 2c3.332031 0 6 2.667969 6 6s-2.667969 6-6 6-6-2.667969-6-6 2.667969-6 6-6zm0 1.875c-.621094 0-1.125.503906-1.125 1.125s.503906 1.125 1.125 1.125 1.125-.503906 1.125-1.125-.503906-1.125-1.125-1.125zm-1.523438 3.125c-.265624.011719-.476562.230469-.476562.5 0 .277344.222656.5.5.5h.5v3h-.5c-.277344 0-.5.222656-.5.5s.222656.5.5.5h3c.277344 0 .5-.222656.5-.5s-.222656-.5-.5-.5h-.5v-4h-2.5c-.007812 0-.015625 0-.023438 0zm0 0" fill="#2e3436"/></svg>