<svg fill="none" height="24" viewBox="0 0 24 24" width="24" xmlns="http://www.w3.org/2000/svg"><g fill="#292d32"><path d="m15.59 12.4v4.07c0 .36-.04.7-.13 1.01-.37 1.47-1.59 2.39-3.27 2.39h-2.72l-3.02 2.01c-.45.31-1.05-.02-1.05-.56v-1.45c-1.02 0-1.87-.34-2.46-.93-.6-.6-.94-1.45-.94-2.47v-4.07c0-1.9 1.18-3.21 3-3.38.13-.01.26-.02.4-.02h6.79c2.04 0 3.4 1.36 3.4 3.4z"/><path d="m17.75 15.6c1.27 0 2.34-.42 3.08-1.17.75-.74 1.17-1.81 1.17-3.08v-5.1c0-2.35-1.9-4.25-4.25-4.25h-8.5c-2.35 0-4.25 1.9-4.25 4.25v.75c0 .28.22.5.5.5h6.69c2.71 0 4.9 2.19 4.9 4.9v2.7c0 .28.22.5.5.5z"/></g></svg>