<svg fill="none" height="24" viewBox="0 0 24 24" width="24" xmlns="http://www.w3.org/2000/svg"><g fill="#292d32"><path d="m16.9 19.0098c-.31 0-.62-.0901-.89-.2701l-.96-.63c-.27-.18-.4-.5199-.31-.8299.07-.23.1-.5001.1-.8001v-4.07c0-1.63-1.02-2.64993-2.65-2.64993h-6.79001c-.12 0-.22999.01001-.33999.02002-.21.01-.40999-.06002-.56999-.20002s-.24001-.33998-.24001-.54998v-2.77002c0-2.94 2.06-5 5-5h8.5c2.94 0 5 2.06 5 5v5.09993c0 1.45-.49 2.73-1.39 3.61-.72.73-1.72 1.2001-2.86 1.3401v1.1099c0 .6-.33 1.1401-.85 1.4201-.24.11-.5.17-.75.17zm-.6-1.88.65.37c.06-.03.06-.0801.06-.0901v-1.81c0-.41.34-.75.75-.75 1.05 0 1.94-.3299 2.55-.9499.63-.62.95-1.5001.95-2.5501v-5.09994c0-2.13-1.37-3.5-3.5-3.5h-8.50001c-2.13 0-3.5 1.37-3.5 3.5v2h6.44001c2.44 0 4.15 1.71002 4.15 4.15004v4.0699c-.01.23-.02.4501-.05.6601z"/><path d="m6.07001 22.75c-.22 0-.45001-.05-.66001-.16-.47-.25-.76001-.73-.76001-1.27v-.76c-.88-.14-1.65999-.51-2.23999-1.09-.76-.76-1.16-1.8-1.16-3v-4.07c0-2.26 1.47999-3.91998 3.67999-4.12998.16-.01.31-.02002.47-.02002h6.79001c2.44 0 4.15 1.71002 4.15 4.15v4.07c0 .44-.05.85-.16 1.22-.45 1.8-1.98 2.93-3.99 2.93h-2.49l-2.83 1.88c-.24.17-.51999.25-.79999.25zm-.67002-13c-.12 0-.22999.01002-.33999.02002-1.44.13-2.31 1.11998-2.31 2.62998v4.07c0 .8.25 1.47.72 1.94.46.46 1.12999.71 1.92999.71.41 0 .75.34.75.75v1.31l2.90001-1.93c.12-.08.27-.13.42-.13h2.72c1.32 0 2.25-.66 2.54-1.82.07-.25.11-.53.11-.83v-4.07c0-1.63-1.02-2.65-2.65-2.65z"/></g></svg>