<svg width="415" height="185" viewBox="0 0 415 185" fill="none" xmlns="http://www.w3.org/2000/svg">
<path d="M266 63H397V151C350.5 155.5 310.5 158 269 118L266 63Z" fill="#6229B3"/>
<g filter="url(#filter0_d_1163_1131)">
<path d="M22 54H397V101.359C285.5 141.702 127 182.922 22 122.408V54Z" fill="#803DE0"/>
</g>
<g filter="url(#filter1_d_1163_1131)">
<path d="M80.5556 92.4095C229.89 130.832 265.816 109.819 397 71V109.836C289.849 149.667 146.148 134.461 41 105.853L80.5556 92.4095Z" fill="url(#paint0_linear_1163_1131)" shape-rendering="crispEdges"/>
</g>
<path d="M22 0H397V85.9873C253.526 114.988 171.227 115.685 22 85.9873V0Z" fill="white"/>
<defs>
<filter id="filter0_d_1163_1131" x="0" y="46" width="415" height="139" filterUnits="userSpaceOnUse" color-interpolation-filters="sRGB">
<feFlood flood-opacity="0" result="BackgroundImageFix"/>
<feColorMatrix in="SourceAlpha" type="matrix" values="0 0 0 0 0 0 0 0 0 0 0 0 0 0 0 0 0 0 127 0" result="hardAlpha"/>
<feOffset dx="-2" dy="12"/>
<feGaussianBlur stdDeviation="10"/>
<feComposite in2="hardAlpha" operator="out"/>
<feColorMatrix type="matrix" values="0 0 0 0 0.384314 0 0 0 0 0.160784 0 0 0 0 0.701961 0 0 0 0.2 0"/>
<feBlend mode="normal" in2="BackgroundImageFix" result="effect1_dropShadow_1163_1131"/>
<feBlend mode="normal" in="SourceGraphic" in2="effect1_dropShadow_1163_1131" result="shape"/>
</filter>
<filter id="filter1_d_1163_1131" x="26" y="68" width="372" height="79" filterUnits="userSpaceOnUse" color-interpolation-filters="sRGB">
<feFlood flood-opacity="0" result="BackgroundImageFix"/>
<feColorMatrix in="SourceAlpha" type="matrix" values="0 0 0 0 0 0 0 0 0 0 0 0 0 0 0 0 0 0 127 0" result="hardAlpha"/>
<feOffset dx="-7" dy="5"/>
<feGaussianBlur stdDeviation="4"/>
<feComposite in2="hardAlpha" operator="out"/>
<feColorMatrix type="matrix" values="0 0 0 0 0.211765 0 0 0 0 0.215686 0 0 0 0 0.196078 0 0 0 0.1 0"/>
<feBlend mode="normal" in2="BackgroundImageFix" result="effect1_dropShadow_1163_1131"/>
<feBlend mode="normal" in="SourceGraphic" in2="effect1_dropShadow_1163_1131" result="shape"/>
</filter>
<linearGradient id="paint0_linear_1163_1131" x1="191.211" y1="89.422" x2="295.468" y2="163.164" gradientUnits="userSpaceOnUse">
<stop stop-color="#6229B3" stop-opacity="0.35"/>
<stop offset="1" stop-color="#6229B3" stop-opacity="0"/>
</linearGradient>
</defs>
</svg>
