<svg width="375" height="258" viewBox="0 0 375 258" fill="none" xmlns="http://www.w3.org/2000/svg">
<path d="M244 136H379L375 224C328.5 228.5 288.5 231 247 191L244 136Z" fill="#6229B3"/>
<g filter="url(#filter0_d_1163_1131)">
<path d="M0 127H375V174.359C263.5 214.702 105 255.922 0 195.408V127Z" fill="#803DE0"/>
</g>
<g filter="url(#filter1_d_1163_1131)">
<path d="M59 165C208.125 203.585 244 182.484 375 143.5V182.5C268 222.5 124.5 207.229 19.5 178.5L59 165Z" fill="url(#paint0_linear_1163_1131)" shape-rendering="crispEdges"/>
</g>
<path d="M0 0H375V144.108C231.526 192.712 149.227 193.879 0 144.108V0Z" fill="white"/>
<defs>
<filter id="filter0_d_1163_1131" x="-22" y="119" width="415" height="139" filterUnits="userSpaceOnUse" color-interpolation-filters="sRGB">
<feFlood flood-opacity="0" result="BackgroundImageFix"/>
<feColorMatrix in="SourceAlpha" type="matrix" values="0 0 0 0 0 0 0 0 0 0 0 0 0 0 0 0 0 0 127 0" result="hardAlpha"/>
<feOffset dx="-2" dy="12"/>
<feGaussianBlur stdDeviation="10"/>
<feComposite in2="hardAlpha" operator="out"/>
<feColorMatrix type="matrix" values="0 0 0 0 0.384314 0 0 0 0 0.160784 0 0 0 0 0.701961 0 0 0 0.2 0"/>
<feBlend mode="normal" in2="BackgroundImageFix" result="effect1_dropShadow_1163_1131"/>
<feBlend mode="normal" in="SourceGraphic" in2="effect1_dropShadow_1163_1131" result="shape"/>
</filter>
<filter id="filter1_d_1163_1131" x="4.5" y="140.5" width="371.5" height="79.2666" filterUnits="userSpaceOnUse" color-interpolation-filters="sRGB">
<feFlood flood-opacity="0" result="BackgroundImageFix"/>
<feColorMatrix in="SourceAlpha" type="matrix" values="0 0 0 0 0 0 0 0 0 0 0 0 0 0 0 0 0 0 127 0" result="hardAlpha"/>
<feOffset dx="-7" dy="5"/>
<feGaussianBlur stdDeviation="4"/>
<feComposite in2="hardAlpha" operator="out"/>
<feColorMatrix type="matrix" values="0 0 0 0 0.211765 0 0 0 0 0.215686 0 0 0 0 0.196078 0 0 0 0.1 0"/>
<feBlend mode="normal" in2="BackgroundImageFix" result="effect1_dropShadow_1163_1131"/>
<feBlend mode="normal" in="SourceGraphic" in2="effect1_dropShadow_1163_1131" result="shape"/>
</filter>
<linearGradient id="paint0_linear_1163_1131" x1="169.5" y1="162" x2="274" y2="235.5" gradientUnits="userSpaceOnUse">
<stop stop-color="#6229B3" stop-opacity="0.35"/>
<stop offset="1" stop-color="#6229B3" stop-opacity="0"/>
</linearGradient>
</defs>
</svg>
