<svg fill="none" height="24" viewBox="0 0 24 24" width="24" xmlns="http://www.w3.org/2000/svg"><g stroke="#292d32" stroke-linecap="round" stroke-linejoin="round" stroke-width="1.5"><path d="m12.1601 10.87c-.1-.01-.22-.01-.33 0-2.38004-.08-4.27004-2.03-4.27004-4.43 0-2.45 1.98-4.44 4.44004-4.44 2.45 0 4.44 1.99 4.44 4.44-.01 2.4-1.9 4.35-4.28 4.43z"/><path d="m7.15997 14.56c-2.42 1.62-2.42 4.26 0 5.87 2.75 1.84 7.26003 1.84 10.01003 0 2.42-1.62 2.42-4.26 0-5.87-2.74-1.83-7.25003-1.83-10.01003 0z"/></g></svg>