<svg fill="none" height="24" viewBox="0 0 24 24" width="24" xmlns="http://www.w3.org/2000/svg"><g fill="#292d32"><path d="m12.0004 22.7599c-1.09 0-2.17001-.32-3.02001-.95l-4.3-3.21c-1.14-.85-2.03-2.63-2.03-4.04v-7.43996c0-1.54 1.13-3.18 2.58-3.72l4.99001-1.87c.99-.37 2.55-.37 3.54 0l4.99 1.87c1.45.54 2.58 2.18 2.58 3.72v7.42996c0 1.42-.89 3.19-2.03 4.04l-4.3 3.21c-.83.64-1.91.96-3 .96zm-1.25-19.81996-4.99001 1.87c-.85.32-1.6 1.4-1.6 2.32v7.42996c0 .95.67 2.28 1.42 2.84l4.3 3.21c1.15001.86 3.09001.86 4.25001 0l4.3-3.21c.76-.57 1.42-1.89 1.42-2.84v-7.43996c0-.91-.75-1.99-1.6-2.32l-4.99-1.87c-.68-.24-1.84-.24-2.51.01z"/><path d="m10.6602 14.2301c-.19 0-.38-.07-.53-.22l-1.60997-1.61c-.29-.29-.29-.77 0-1.06s.77-.29 1.06 0l1.07997 1.08 3.77-3.76998c.29-.29.77-.29 1.06 0s.29.77 0 1.06l-4.3 4.29998c-.15.15-.34.22-.53.22z"/></g></svg>