<svg viewBox="0 0 1000 1004.1441" xmlns="http://www.w3.org/2000/svg"><path d="m887 951.144h-775c-62 0-112-51-112-113v-663c0-62 50-113 112-113h774c62 0 112 51 112 113v663c1 62-50 113-111 113zm-775-846c-38 0-70 31-70 70v663c0 39 32 70 70 70h774c39 0 70-32 70-70v-663c0-39-31-70-70-70zm259 126c12 0 22 9 22 21v85c0 12-10 21-22 21h-84c-12 0-21-9-21-21v-85c0-11 9-21 21-21zm254 85c11 0 21 9 21 21s-9 21-21 21h-169c-12 0-21-9-21-21s9-21 21-21zm-275-43h-42v42h42zm359-42c11 0 21 9 21 21s-9 22-21 22h-254c-11 0-21-9-21-22 0-11 9-21 21-21zm-338 211c12 0 22 9 22 21v85c0 12-10 21-22 21h-84c-12 0-21-9-21-21v-85c0-11 9-21 21-21zm254 85c11 0 21 9 21 21s-9 21-21 21h-169c-12 0-21-9-21-21s9-21 21-21zm-275-42h-42v42h42zm359-43c11 0 21 9 21 21s-9 22-21 22h-254c-11 0-21-10-21-22s9-21 21-21zm-338 211c12 0 22 9 22 22v84c0 12-10 21-22 21h-84c-12 0-21-9-21-21v-84c0-12 9-22 21-22zm254 84c11 0 21 10 21 22s-9 21-21 21h-169c-12 0-21-9-21-21s9-22 21-22zm-275-42h-42v42h42zm359-42c11 0 21 9 21 22 0 11-9 21-21 21h-254c-11 0-21-9-21-21s9-22 21-22z"/></svg>